<svg version="1.2" xmlns="http://www.w3.org/2000/svg" viewBox="0 0 9 10" width="9" height="10"><style>.s0{fill:#727272}</style><path class="s0" d="m8.9 4.8q0.1 0.1 0.1 0.2q0 0.1-0.1 0.2l-4.3 4.7q-0.1 0.1-0.2 0.1q-0.2 0-0.3-0.1l-0.4-0.5q-0.1-0.1-0.1-0.2q0-0.2 0.1-0.3l3.6-3.9l-3.6-3.9q-0.1-0.1-0.1-0.3q0-0.1 0.1-0.2l0.4-0.5q0.1-0.1 0.3-0.1q0.1 0 0.2 0.1l4.3 4.7zm0 0m-3.5 0.2q0 0.1-0.1 0.2l-4.3 4.7q-0.1 0.1-0.2 0.1q-0.1 0-0.2-0.1l-0.5-0.5q-0.1-0.1-0.1-0.2q0-0.2 0.1-0.3l3.7-3.9l-3.7-3.9q-0.1-0.1-0.1-0.3q0-0.1 0.1-0.2l0.5-0.5q0.1-0.1 0.2-0.1q0.1 0 0.2 0.1l4.3 4.7q0.1 0.1 0.1 0.2zm0 0" /></svg>